<svg xmlns="http://www.w3.org/2000/svg" x="0px" y="0px" width="100" height="100" viewBox="0,0,256,256">
<g fill="#ff0505" fill-rule="nonzero" stroke="none" stroke-width="1" stroke-linecap="butt" stroke-linejoin="miter" stroke-miterlimit="10" stroke-dasharray="" stroke-dashoffset="0" font-family="none" font-weight="none" font-size="none" text-anchor="none" style="mix-blend-mode: normal"><g transform="scale(8.53333,8.53333)"><path d="M6,8v16c0,1.1 0.9,2 2,2h14c1.1,0 2,-0.9 2,-2v-16zM24,4h-6c0,-0.6 -0.4,-1 -1,-1h-4c-0.6,0 -1,0.4 -1,1h-6c-0.6,0 -1,0.4 -1,1c0,0.6 0.4,1 1,1h18c0.6,0 1,-0.4 1,-1c0,-0.6 -0.4,-1 -1,-1z"></path></g></g>
</svg>